<?xml version="1.0" standalone="no"?>
<!DOCTYPE svg PUBLIC "-//W3C//DTD SVG 20010904//EN"
 "http://www.w3.org/TR/2001/REC-SVG-20010904/DTD/svg10.dtd">
<svg version="1.0" xmlns="http://www.w3.org/2000/svg"
 width="1058.6667" height="1058.6667" viewBox="0 0 1058.6667 1058.6667"
 preserveAspectRatio="xMidYMid meet">
  <g transform="matrix(1.3333333,0,0,-1.3333333,0,1058.6667)" fill="#000000" stroke="none">
    <g transform="translate(174.5048,311.1505)">
      <path
        d="m 0,0 c 0,0 -8.354,-207.655 254.2,-193.335 262.553,14.321 243.459,344.9 8.353,340.127 l -2.386,-40.577 -115.763,79.96 109.796,75.185 3.58,-34.609 c 0,0 104.577,5.599 181.4,-55.643 0,0 10.741,149.924 -134.856,185.727 C 168.967,386.173 85.225,334.035 78.766,329.386 72.308,324.737 -35.001,258.386 18.276,110.24 51.691,20.733 184.981,23.869 184.981,23.869 l -1.193,41.77 120.536,-83.54 -120.536,-78.766 -2.387,47.737 C 181.401,-48.93 83.46,-60.202 0,0"
      />
    </g>
  </g>
</svg>
