<?xml version="1.0" encoding="UTF-8" standalone="no"?>
<svg
   xmlns:dc="http://purl.org/dc/elements/1.1/"
   xmlns:cc="http://creativecommons.org/ns#"
   xmlns:rdf="http://www.w3.org/1999/02/22-rdf-syntax-ns#"
   xmlns:svg="http://www.w3.org/2000/svg"
   xmlns="http://www.w3.org/2000/svg"
   xmlns:sodipodi="http://sodipodi.sourceforge.net/DTD/sodipodi-0.dtd"
   xmlns:inkscape="http://www.inkscape.org/namespaces/inkscape"
   version="1.1"
   id="svg2"
   xml:space="preserve"
   width="1058.6667"
   height="1058.6667"
   viewBox="0 0 1058.6667 1058.6667"
   sodipodi:docname="logo.ai"><metadata
     id="metadata8"><rdf:RDF><cc:Work
         rdf:about=""><dc:format>image/svg+xml</dc:format><dc:type
           rdf:resource="http://purl.org/dc/dcmitype/StillImage" /></cc:Work></rdf:RDF></metadata><defs
     id="defs6"><clipPath
       clipPathUnits="userSpaceOnUse"
       id="clipPath18"><path
         d="M 0,794 H 794 V 0 H 0 Z"
         id="path16" /></clipPath></defs><sodipodi:namedview
     pagecolor="#ffffff"
     bordercolor="#666666"
     borderopacity="1"
     objecttolerance="10"
     gridtolerance="10"
     guidetolerance="10"
     inkscape:pageopacity="0"
     inkscape:pageshadow="2"
     inkscape:window-width="640"
     inkscape:window-height="480"
     id="namedview4" /><g
     id="g10"
     inkscape:groupmode="layer"
     inkscape:label="logo"
     transform="matrix(1.3333333,0,0,-1.3333333,0,1058.6667)"><g
       id="g12"><g
         id="g14"
         clip-path="url(#clipPath18)"><g
           id="g20"
           transform="translate(623.9711,1e-4)"><path
             d="m 0,0 h -453.943 c -93.515,0 -170.028,76.513 -170.028,170.028 v 453.943 c 0,93.516 76.513,170.029 170.028,170.029 H 0 c 93.516,0 170.029,-76.513 170.029,-170.029 V 170.028 C 170.029,76.513 93.516,0 0,0"
             style="fill:#ff9000;fill-opacity:1;fill-rule:nonzero;stroke:none"
             id="path22" /></g><g
           id="g24"
           transform="translate(174.5048,311.1505)"><path
             d="m 0,0 c 0,0 -8.354,-207.655 254.2,-193.335 262.553,14.321 243.459,344.9 8.353,340.127 l -2.386,-40.577 -115.763,79.96 109.796,75.185 3.58,-34.609 c 0,0 104.577,5.599 181.4,-55.643 0,0 10.741,149.924 -134.856,185.727 C 168.967,386.173 85.225,334.035 78.766,329.386 72.308,324.737 -35.001,258.386 18.276,110.24 51.691,20.733 184.981,23.869 184.981,23.869 l -1.193,41.77 120.536,-83.54 -120.536,-78.766 -2.387,47.737 C 181.401,-48.93 83.46,-60.202 0,0"
             style="fill:#ffffff;fill-opacity:1;fill-rule:nonzero;stroke:none"
             id="path26" /></g></g></g></g></svg>
